<?xml version="1.0" standalone="no"?>
<!DOCTYPE svg PUBLIC "-//W3C//DTD SVG 20010904//EN"
 "http://www.w3.org/TR/2001/REC-SVG-20010904/DTD/svg10.dtd">
<svg version="1.0" xmlns="http://www.w3.org/2000/svg"
 width="286.000000pt" height="286.000000pt" viewBox="0 0 286.000000 286.000000"
 preserveAspectRatio="xMidYMid meet">
<metadata>
Created by potrace 1.14, written by Peter Selinger 2001-2017
</metadata>
<g transform="translate(0.000000,286.000000) scale(0.100000,-0.100000)"
fill="#000000" stroke="none">
<path d="M1404 2712 c-28 -88 -236 -729 -278 -857 l-33 -100 -540 0 c-298 0
-539 -3 -537 -7 3 -4 68 -53 147 -110 78 -56 147 -106 152 -111 6 -4 73 -53
150 -109 255 -185 300 -217 310 -226 6 -4 31 -22 58 -40 26 -18 47 -38 47 -43
0 -10 -137 -436 -271 -843 -32 -99 -57 -181 -56 -182 2 -2 126 87 278 199 96
70 523 379 559 404 l46 31 39 -32 c22 -17 99 -74 170 -126 72 -51 153 -110
180 -130 41 -31 231 -169 310 -226 11 -8 54 -39 95 -69 41 -29 76 -53 77 -51
2 2 -106 338 -273 847 -30 92 -54 171 -54 176 0 5 28 30 63 55 515 373 775
563 789 577 16 15 -22 16 -524 16 l-542 0 -42 130 c-200 619 -286 881 -292
887 -4 3 -17 -24 -28 -60z"/>
</g>
</svg>
