<?xml version="1.0" standalone="no"?>
<!DOCTYPE svg PUBLIC "-//W3C//DTD SVG 20010904//EN"
 "http://www.w3.org/TR/2001/REC-SVG-20010904/DTD/svg10.dtd">
<svg version="1.0" xmlns="http://www.w3.org/2000/svg"
 width="520.000000pt" height="520.000000pt" viewBox="0 0 520.000000 520.000000"
 preserveAspectRatio="xMidYMid meet">
<metadata>
Created by potrace 1.11, written by Peter Selinger 2001-2013
</metadata>
<g transform="translate(0.000000,520.000000) scale(0.100000,-0.100000)"
fill="#000" stroke="none">
<path d="M40 2640 l0 -2560 2560 0 2560 0 0 2560 0 2560 -2560 0 -2560 0 0
-2560z m2902 1471 c186 -40 358 -113 518 -220 106 -71 273 -230 355 -340 118
-157 212 -366 257 -574 19 -89 22 -132 22 -337 0 -205 -3 -248 -22 -337 -61
-280 -182 -508 -377 -711 -122 -127 -235 -213 -374 -285 -127 -66 -246 -109
-384 -139 -89 -19 -132 -22 -337 -22 -205 0 -248 3 -337 22 -280 61 -508 182
-711 377 -127 122 -213 235 -285 374 -66 127 -109 246 -139 384 -19 89 -22
132 -22 337 0 205 3 248 22 337 42 192 113 362 221 523 71 106 230 273 340
355 148 112 361 209 541 249 133 30 201 35 410 31 160 -3 226 -8 302 -24z"/>
</g>
</svg>
